<svg width="45" height="45" viewBox="0 0 45 45" fill="none" xmlns="http://www.w3.org/2000/svg">
<rect width="45" height="45" rx="22.5" fill="#F0F0F0"/>
<path d="M36.5622 22.8435C36.5622 21.8748 36.4684 20.8748 36.3122 19.9373H22.7808V25.4686H30.5308C30.2183 27.2498 29.1871 28.8124 27.6558 29.8124L32.2809 33.4062C34.9996 30.8749 36.5622 27.1873 36.5622 22.8435Z" fill="#4280EF"/>
<path d="M22.7809 36.8436C26.6559 36.8436 29.906 35.5624 32.281 33.3748L27.656 29.8123C26.3747 30.6873 24.7184 31.1873 22.7809 31.1873C19.0309 31.1873 15.8746 28.656 14.7183 25.281L9.96826 28.9373C12.4058 33.7811 17.3433 36.8436 22.7809 36.8436Z" fill="#34A353"/>
<path d="M14.7183 25.2499C14.1246 23.4686 14.1246 21.5311 14.7183 19.7498L9.96828 16.0623C7.93701 20.1248 7.93701 24.9061 9.96828 28.9374L14.7183 25.2499Z" fill="#F6B704"/>
<path d="M22.7809 13.8434C24.8122 13.8121 26.8122 14.5934 28.281 15.9997L32.3748 11.8746C29.781 9.43708 26.3434 8.12457 22.7809 8.15582C17.3433 8.15582 12.4058 11.2184 9.96826 16.0622L14.7183 19.7497C15.8746 16.3434 19.0309 13.8434 22.7809 13.8434Z" fill="#E54335"/>
</svg>
