<svg width="300" height="188" viewBox="0 0 300 188" fill="none" xmlns="http://www.w3.org/2000/svg">
<g clip-path="url(#clip0_698_3850)">
<path d="M78.4048 114.147C109.926 114.147 135.478 88.5943 135.478 57.0735C135.478 25.5527 109.926 0 78.4048 0C46.884 0 21.3313 25.5527 21.3313 57.0735C21.3313 88.5943 46.884 114.147 78.4048 114.147Z" fill="#F2F2F2"/>
<path d="M0 13.7036C0 34.4692 13.0272 51.2725 29.1264 51.2725Z" fill="#2F2E41"/>
<path d="M29.1265 51.2725C29.1265 30.2736 43.6641 13.2815 61.6299 13.2815Z" fill="#63FFE4"/>
<path d="M10.553 15.5861C10.553 35.3112 18.8602 51.2725 29.1264 51.2725Z" fill="#63FFE4"/>
<path d="M29.1265 51.2725C29.1265 24.4405 45.9297 2.72845 66.6953 2.72845Z" fill="#2F2E41"/>
<path d="M22.999 51.5374C22.999 51.5374 27.1296 51.4102 28.3745 50.5237C29.6194 49.6373 34.7284 48.5788 35.0372 50.0005C35.346 51.4222 41.2448 57.0712 36.5813 57.1088C31.9179 57.1465 25.7456 56.3824 24.5031 55.6256C23.2606 54.8688 22.999 51.5374 22.999 51.5374Z" fill="#A8A8A8"/>
<path opacity="0.2" d="M36.6645 56.6139C32.0011 56.6515 25.8288 55.8875 24.5863 55.1307C23.6401 54.5543 23.2631 52.4861 23.1369 51.532C23.0495 51.5357 22.999 51.5373 22.999 51.5373C22.999 51.5373 23.2606 54.8687 24.5031 55.6255C25.7456 56.3824 31.9179 57.1464 36.5813 57.1088C37.9275 57.0979 38.3925 56.619 38.3669 55.9096C38.1799 56.3382 37.6665 56.6058 36.6645 56.6139Z" fill="black"/>
<path d="M53.2174 120.562C80.8906 120.562 103.324 117.51 103.324 113.745C103.324 109.98 80.8906 106.928 53.2174 106.928C25.5442 106.928 3.1106 109.98 3.1106 113.745C3.1106 117.51 25.5442 120.562 53.2174 120.562Z" fill="#3F3D56"/>
<path opacity="0.1" d="M53.2174 119.468C76.4511 119.468 95.2857 116.906 95.2857 113.745C95.2857 110.584 76.4511 108.022 53.2174 108.022C29.9838 108.022 11.1492 110.584 11.1492 113.745C11.1492 116.906 29.9838 119.468 53.2174 119.468Z" fill="black"/>
<path d="M224.17 187.297C266.05 187.297 300 182.679 300 176.981C300 171.284 266.05 166.665 224.17 166.665C182.29 166.665 148.34 171.284 148.34 176.981C148.34 182.679 182.29 187.297 224.17 187.297Z" fill="#3F3D56"/>
<path d="M83.2279 179.159C108.385 179.159 128.779 176.385 128.779 172.962C128.779 169.54 108.385 166.765 83.2279 166.765C58.0704 166.765 37.6763 169.54 37.6763 172.962C37.6763 176.385 58.0704 179.159 83.2279 179.159Z" fill="#3F3D56"/>
<path d="M123.956 167.737C148.072 173.9 194.427 159.699 199.518 143.622" stroke="#2F2E41" stroke-width="2" stroke-miterlimit="10"/>
<path d="M82.96 69.3992C82.96 69.3992 117.794 59.753 119.937 90.8353C122.081 121.918 91.2664 130.76 115.382 136.923" stroke="#2F2E41" stroke-width="2" stroke-miterlimit="10"/>
<path d="M49.3059 143.965C49.3059 143.965 59.7754 141.066 60.4196 150.408C61.0639 159.75 51.8025 162.408 59.0505 164.26" stroke="#2F2E41" stroke-width="2" stroke-miterlimit="10"/>
<path d="M208.654 150.92L206.544 164.397C206.544 164.397 196.152 169.918 203.459 170.08C210.765 170.242 245.187 170.08 245.187 170.08C245.187 170.08 251.845 170.08 241.291 164.235L239.18 150.109L208.654 150.92Z" fill="#2F2E41"/>
<path opacity="0.1" d="M201.989 169.934C203.648 168.457 206.544 166.919 206.544 166.919L208.654 153.442L239.18 153.471L241.291 166.756C243.752 168.12 245.276 169.164 246.168 169.966C247.524 169.657 249.005 168.507 241.291 164.235L239.18 150.109L208.654 150.92L206.544 164.397C206.544 164.397 197.812 169.037 201.989 169.934Z" fill="black"/>
<path d="M287.683 56.9901H159.827C157.156 56.9901 154.991 59.1549 154.991 61.8254V147.952C154.991 150.623 157.156 152.788 159.827 152.788H287.683C290.353 152.788 292.518 150.623 292.518 147.952V61.8254C292.518 59.1549 290.353 56.9901 287.683 56.9901Z" fill="#2F2E41"/>
<path d="M287.89 62.1047H159.619V133.872H287.89V62.1047Z" fill="#3F3D56"/>
<path d="M223.755 60.6433C224.203 60.6433 224.567 60.2799 224.567 59.8315C224.567 59.3831 224.203 59.0197 223.755 59.0197C223.306 59.0197 222.943 59.3831 222.943 59.8315C222.943 60.2799 223.306 60.6433 223.755 60.6433Z" fill="#F2F2F2"/>
<path d="M292.518 139.555V147.952C292.518 148.587 292.393 149.216 292.15 149.803C291.907 150.39 291.551 150.923 291.102 151.372C290.653 151.821 290.12 152.177 289.533 152.42C288.946 152.663 288.318 152.788 287.683 152.788H159.827C159.192 152.788 158.563 152.663 157.976 152.42C157.39 152.177 156.857 151.821 156.408 151.372C155.958 150.923 155.602 150.39 155.359 149.803C155.116 149.216 154.991 148.587 154.991 147.952V139.555H292.518Z" fill="#2F2E41"/>
<path d="M259.638 178.848V180.472H172.284V179.173L172.404 178.848L174.557 173.003H257.852L259.638 178.848Z" fill="#2F2E41"/>
<path d="M293.255 177.258C293.096 177.939 292.495 178.656 291.138 179.335C286.267 181.771 276.362 178.686 276.362 178.686C276.362 178.686 268.731 177.387 268.731 173.977C268.945 173.83 269.169 173.697 269.4 173.579C271.448 172.496 278.238 169.822 290.278 173.692C291.165 173.971 291.957 174.49 292.567 175.192C293.054 175.763 293.437 176.488 293.255 177.258Z" fill="#2F2E41"/>
<path opacity="0.1" d="M293.255 177.258C287.293 179.543 281.979 179.713 276.525 175.925C273.774 174.016 271.275 173.543 269.4 173.579C271.448 172.496 278.238 169.822 290.278 173.692C291.165 173.971 291.957 174.49 292.567 175.192C293.054 175.763 293.437 176.488 293.255 177.258Z" fill="black"/>
<path d="M285.78 175.925C286.946 175.925 287.891 175.635 287.891 175.276C287.891 174.917 286.946 174.626 285.78 174.626C284.614 174.626 283.669 174.917 283.669 175.276C283.669 175.635 284.614 175.925 285.78 175.925Z" fill="#F2F2F2"/>
<path d="M223.755 149.297C225.458 149.297 226.84 147.916 226.84 146.212C226.84 144.508 225.458 143.127 223.755 143.127C222.051 143.127 220.67 144.508 220.67 146.212C220.67 147.916 222.051 149.297 223.755 149.297Z" fill="#F2F2F2"/>
<path opacity="0.1" d="M259.638 178.848V180.472H172.284V179.173L172.404 178.848H259.638Z" fill="black"/>
<path d="M84.8355 42.6041H29.1018V107.448H84.8355V42.6041Z" fill="#2F2E41"/>
<path d="M90.4625 36.1733H23.4749V59.2171H90.4625V36.1733Z" fill="#3F3D56"/>
<path d="M90.4625 63.5043H23.4749V86.5481H90.4625V63.5043Z" fill="#3F3D56"/>
<path d="M90.4625 90.8353H23.4749V113.879H90.4625V90.8353Z" fill="#3F3D56"/>
<path opacity="0.4" d="M77.065 40.1926H72.7778V44.4798H77.065V40.1926Z" fill="#63FFE4"/>
<path opacity="0.8" d="M83.2279 40.1926H78.9407V44.4798H83.2279V40.1926Z" fill="#63FFE4"/>
<path d="M89.3907 40.1926H85.1035V44.4798H89.3907V40.1926Z" fill="#63FFE4"/>
<path opacity="0.4" d="M77.065 67.2556H72.7778V71.5428H77.065V67.2556Z" fill="#63FFE4"/>
<path opacity="0.8" d="M83.2279 67.2556H78.9407V71.5428H83.2279V67.2556Z" fill="#63FFE4"/>
<path d="M89.3907 67.2556H85.1035V71.5428H89.3907V67.2556Z" fill="#63FFE4"/>
<path opacity="0.4" d="M77.065 94.3186H72.7778V98.6058H77.065V94.3186Z" fill="#63FFE4"/>
<path opacity="0.8" d="M83.2279 94.3186H78.9407V98.6058H83.2279V94.3186Z" fill="#63FFE4"/>
<path d="M89.3907 94.3186H85.1035V98.6058H89.3907V94.3186Z" fill="#63FFE4"/>
<path d="M84.8356 165.326C96.5264 165.326 106.004 155.848 106.004 144.157C106.004 132.467 96.5264 122.989 84.8356 122.989C73.1448 122.989 63.6675 132.467 63.6675 144.157C63.6675 155.848 73.1448 165.326 84.8356 165.326Z" fill="#2F2E41"/>
<path d="M81.6203 160.77H75.1895V172.292H81.6203V160.77Z" fill="#2F2E41"/>
<path d="M94.4818 160.77H88.051V172.292H94.4818V160.77Z" fill="#2F2E41"/>
<path d="M80.5485 174.436C83.5082 174.436 85.9075 173.536 85.9075 172.426C85.9075 171.316 83.5082 170.417 80.5485 170.417C77.5888 170.417 75.1895 171.316 75.1895 172.426C75.1895 173.536 77.5888 174.436 80.5485 174.436Z" fill="#2F2E41"/>
<path d="M93.41 174.168C96.3697 174.168 98.7691 173.268 98.7691 172.158C98.7691 171.048 96.3697 170.149 93.41 170.149C90.4503 170.149 88.051 171.048 88.051 172.158C88.051 173.268 90.4503 174.168 93.41 174.168Z" fill="#2F2E41"/>
<path d="M85.3716 146.033C89.3672 146.033 92.6063 142.794 92.6063 138.798C92.6063 134.803 89.3672 131.564 85.3716 131.564C81.376 131.564 78.137 134.803 78.137 138.798C78.137 142.794 81.376 146.033 85.3716 146.033Z" fill="white"/>
<path d="M85.3715 141.21C86.7034 141.21 87.7831 140.13 87.7831 138.798C87.7831 137.467 86.7034 136.387 85.3715 136.387C84.0397 136.387 82.96 137.467 82.96 138.798C82.96 140.13 84.0397 141.21 85.3715 141.21Z" fill="#3F3D56"/>
<path d="M64.302 124.472C62.5927 116.817 68.0564 109.082 76.5055 107.196C84.9546 105.309 93.1895 109.985 94.8987 117.64C96.6079 125.294 91.0084 128.118 82.5594 130.004C74.1103 131.891 66.0112 132.126 64.302 124.472Z" fill="#63FFE4"/>
<path d="M104.689 139.936C110.063 137.635 113.834 134.403 113.112 132.716C112.39 131.029 107.448 131.526 102.075 133.826C96.7006 136.126 92.9296 139.358 93.6516 141.045C94.3737 142.733 99.3154 142.236 104.689 139.936Z" fill="#2F2E41"/>
<path d="M65.0326 154.137C70.4065 151.837 74.1775 148.605 73.4554 146.918C72.7334 145.231 67.7917 145.728 62.4178 148.028C57.0439 150.328 53.2728 153.56 53.9949 155.247C54.717 156.934 59.6587 156.437 65.0326 154.137Z" fill="#2F2E41"/>
<path d="M97.1613 150.32C97.1613 152.392 91.8268 156.483 85.9074 156.483C79.988 156.483 74.3855 152.66 74.3855 150.588C74.3855 148.517 79.988 148.981 85.9074 148.981C91.8268 148.981 97.1613 148.249 97.1613 150.32Z" fill="white"/>
</g>
<defs>
<clipPath id="clip0_698_3850">
<rect width="300" height="187.298" fill="white"/>
</clipPath>
</defs>
</svg>
