<svg width="24" height="24" viewBox="0 0 24 24" fill="none" xmlns="http://www.w3.org/2000/svg">
<path d="M1.7981 18.3508C1.7981 20.6389 3.65955 22.5003 5.94763 22.5003C8.23572 22.5003 10.0972 20.6389 10.0972 18.3508V8.44458L20.7019 6.65207V11.5932C19.9826 10.9948 19.059 10.634 18.0524 10.634C15.7643 10.634 13.9028 12.4954 13.9028 14.7835C13.9028 17.0712 15.7643 18.9327 18.0524 18.9327C20.3405 18.9327 22.2019 17.0712 22.2019 14.7835V3.77228C22.2019 3.10211 21.9086 2.47003 21.397 2.03754C20.885 1.60468 20.2119 1.41937 19.552 1.53253L10.4901 3.06439C9.39331 3.2497 8.59717 4.19159 8.59717 5.30377V15.1608C7.87784 14.5625 6.95425 14.2016 5.94763 14.2016C3.65955 14.2016 1.7981 16.063 1.7981 18.3508ZM5.94763 15.7016C7.40845 15.7016 8.59717 16.89 8.59717 18.3508C8.59717 19.8116 7.40845 21.0003 5.94763 21.0003C4.48682 21.0003 3.2981 19.8116 3.2981 18.3508C3.2981 16.89 4.48682 15.7016 5.94763 15.7016ZM18.0524 17.4327C16.5916 17.4327 15.4028 16.2443 15.4028 14.7835C15.4028 13.3227 16.5916 12.134 18.0524 12.134C19.5132 12.134 20.7019 13.3227 20.7019 14.7835C20.7019 16.2443 19.5132 17.4327 18.0524 17.4327ZM10.7399 4.54315L19.8018 3.01129C20.0295 2.97431 20.2518 3.03363 20.4283 3.18305C20.6049 3.33209 20.7019 3.5412 20.7019 3.77228V5.1311L10.0972 6.92362V5.30377C10.0972 4.92621 10.3674 4.60614 10.7399 4.54315Z" fill="#0EBE7F"/>
</svg>
