<svg width="25" height="24" viewBox="0 0 25 24" fill="none" xmlns="http://www.w3.org/2000/svg">
<path d="M15.9164 13.4138C15.9164 15.5525 14.1752 17.2924 12.0346 17.2924C9.89413 17.2924 8.15351 15.5525 8.15351 13.4138C8.15351 11.275 9.89413 9.53516 12.0346 9.53516C14.1752 9.53516 15.9164 11.2757 15.9164 13.4138ZM24.0693 7.90633V18.9225C24.0693 20.3911 22.8776 21.5818 21.4078 21.5818H2.6615C1.19169 21.5818 0 20.3911 0 18.9225V7.90633C0 6.43772 1.19169 5.24702 2.6615 5.24702H5.93515V4.3269C5.93515 3.04179 6.97712 2 8.26396 2H15.8053C17.0922 2 18.1341 3.04179 18.1341 4.3269V5.24635H21.4078C22.8776 5.24702 24.0693 6.43772 24.0693 7.90633ZM17.9126 13.4138C17.9126 10.1754 15.2757 7.54067 12.0346 7.54067C8.79426 7.54067 6.15738 10.1754 6.15738 13.4138C6.15738 16.6521 8.79426 19.2868 12.0346 19.2868C15.2757 19.2868 17.9126 16.6521 17.9126 13.4138Z" fill="black"/>
</svg>
