<svg width="24" height="24" viewBox="0 0 24 24" fill="none" xmlns="http://www.w3.org/2000/svg">
<path fill-rule="evenodd" clip-rule="evenodd" d="M0 3.66651C0 3.13607 0.265657 2.62736 0.73853 2.25229C1.2114 1.87722 1.85276 1.66651 2.5215 1.66651H5.043C5.50191 1.66651 5.93309 1.76351 6.30375 1.93451C6.68683 1.75851 7.1218 1.66605 7.5645 1.66651H10.086C11.0026 1.66651 11.8057 2.05451 12.2469 2.63551C12.5117 2.46751 12.8218 2.33951 13.1698 2.26551L15.6056 1.74851C15.9254 1.68045 16.2591 1.66304 16.5874 1.69727C16.9158 1.7315 17.2324 1.8167 17.5193 1.94801C17.8061 2.07932 18.0575 2.25415 18.2591 2.46254C18.4608 2.67093 18.6087 2.90877 18.6944 3.16251L23.9139 18.6175C23.9997 18.8712 24.0217 19.1359 23.9785 19.3963C23.9353 19.6567 23.8279 19.9079 23.6624 20.1354C23.4968 20.3629 23.2764 20.5623 23.0137 20.7223C22.751 20.8822 22.4511 20.9995 22.1312 21.0675L19.6954 21.5845C19.3756 21.6526 19.0419 21.67 18.7136 21.6357C18.3852 21.6015 18.0686 21.5163 17.7817 21.385C17.4949 21.2537 17.2435 21.0789 17.0419 20.8705C16.8402 20.6621 16.6923 20.4242 16.6066 20.1705L12.6075 8.3295V19.6665C12.6075 20.1969 12.3418 20.7056 11.869 21.0807C11.3961 21.4558 10.7547 21.6665 10.086 21.6665H7.5645C7.1218 21.667 6.68683 21.5745 6.30375 21.3985C5.92067 21.5745 5.4857 21.667 5.043 21.6665H2.5215C1.85276 21.6665 1.2114 21.4558 0.73853 21.0807C0.265657 20.7056 0 20.1969 0 19.6665V3.66651ZM2.5215 3.66651H5.043V19.6665H2.5215V3.66651ZM10.086 19.6665H7.5645V3.66651H10.086V19.6665ZM13.8216 4.19751L16.2574 3.68051L21.4794 19.1355L19.0436 19.6525L13.8216 4.19751Z" fill="black"/>
</svg>
