<svg width="20" height="20" viewBox="0 0 20 20" fill="none" xmlns="http://www.w3.org/2000/svg">
<path d="M13.1725 12.0052L21.7457 3.43203C22.0766 3.11246 22.0858 2.58519 21.7662 2.2543C21.4466 1.92341 20.9194 1.91423 20.5885 2.2338C20.5815 2.24049 20.5747 2.24732 20.568 2.2543L11.9948 10.8275L3.42161 2.25425C3.09072 1.93468 2.56345 1.94386 2.24388 2.27475C1.93213 2.59753 1.93213 3.10924 2.24388 3.43203L10.817 12.0052L2.24388 20.5784C1.91871 20.9037 1.91871 21.4309 2.24388 21.7562C2.56911 22.0813 3.09638 22.0813 3.42161 21.7562L11.9948 13.183L20.5679 21.7562C20.8988 22.0757 21.4261 22.0665 21.7457 21.7357C22.0574 21.4129 22.0574 20.9012 21.7457 20.5784L13.1725 12.0052Z" fill="black"/>
</svg>
