<svg width="27" height="24" viewBox="0 0 27 24" fill="none" xmlns="http://www.w3.org/2000/svg">
<path d="M24 13.5733V10.6667C24 7.83769 22.8762 5.12458 20.8758 3.12419C18.8754 1.12381 16.1623 0 13.3333 0C10.5044 0 7.79125 1.12381 5.79086 3.12419C3.79047 5.12458 2.66667 7.83769 2.66667 10.6667V13.5733C1.8886 13.8484 1.21466 14.3574 0.737251 15.0306C0.259838 15.7037 0.00231935 16.5081 0 17.3333V20C0 21.0609 0.421427 22.0783 1.17157 22.8284C1.92172 23.5786 2.93913 24 4 24H8C8.35362 24 8.69276 23.8595 8.94281 23.6095C9.19286 23.3594 9.33333 23.0203 9.33333 22.6667V14.6667C9.33333 14.313 9.19286 13.9739 8.94281 13.7239C8.69276 13.4738 8.35362 13.3333 8 13.3333H5.33333V10.6667C5.33333 8.54494 6.17619 6.5101 7.67648 5.00981C9.17677 3.50952 11.2116 2.66667 13.3333 2.66667C15.4551 2.66667 17.4899 3.50952 18.9902 5.00981C20.4905 6.5101 21.3333 8.54494 21.3333 10.6667V13.3333H18.6667C18.313 13.3333 17.9739 13.4738 17.7239 13.7239C17.4738 13.9739 17.3333 14.313 17.3333 14.6667V22.6667C17.3333 23.0203 17.4738 23.3594 17.7239 23.6095C17.9739 23.8595 18.313 24 18.6667 24H22.6667C23.7275 24 24.7449 23.5786 25.4951 22.8284C26.2452 22.0783 26.6667 21.0609 26.6667 20V17.3333C26.6643 16.5081 26.4068 15.7037 25.9294 15.0306C25.452 14.3574 24.7781 13.8484 24 13.5733ZM6.66667 16V21.3333H4C3.64638 21.3333 3.30724 21.1929 3.05719 20.9428C2.80714 20.6928 2.66667 20.3536 2.66667 20V17.3333C2.66667 16.9797 2.80714 16.6406 3.05719 16.3905C3.30724 16.1405 3.64638 16 4 16H6.66667ZM24 20C24 20.3536 23.8595 20.6928 23.6095 20.9428C23.3594 21.1929 23.0203 21.3333 22.6667 21.3333H20V16H22.6667C23.0203 16 23.3594 16.1405 23.6095 16.3905C23.8595 16.6406 24 16.9797 24 17.3333V20Z" fill="black"/>
</svg>
