<svg width="24" height="24" viewBox="0 0 24 24" fill="none" xmlns="http://www.w3.org/2000/svg">
<path d="M21.4628 10.6502C21.4623 10.6498 21.4618 10.6493 21.4614 10.6488L13.3021 2.53652C12.9544 2.19057 12.492 2 12.0001 2C11.5083 2 11.0459 2.19042 10.698 2.53637L2.54298 10.6446C2.54024 10.6473 2.53749 10.6502 2.53474 10.6529C1.82056 11.3671 1.82178 12.5259 2.53825 13.2383C2.86559 13.5639 3.29791 13.7525 3.76015 13.7722C3.77892 13.7741 3.79784 13.775 3.81692 13.775H4.14212V19.7451C4.14212 20.9265 5.10886 21.8877 6.29733 21.8877H9.48949C9.81301 21.8877 10.0755 21.6269 10.0755 21.3051V16.6245C10.0755 16.0854 10.5165 15.6469 11.0587 15.6469H12.9415C13.4837 15.6469 13.9248 16.0854 13.9248 16.6245V21.3051C13.9248 21.6269 14.1871 21.8877 14.5108 21.8877H17.7029C18.8914 21.8877 19.8581 20.9265 19.8581 19.7451V13.775H20.1597C20.6514 13.775 21.1138 13.5845 21.4618 13.2386C22.1791 12.525 22.1794 11.3643 21.4628 10.6502Z" fill="black"/>
</svg>
