<svg width="24" height="24" viewBox="0 0 24 24" fill="none" xmlns="http://www.w3.org/2000/svg">
<path d="M13.4297 9.86719C12.8883 9.86719 12.4688 10.2867 12.4688 10.8047C12.4688 11.3227 12.8883 11.7422 13.4297 11.7422C13.9242 11.7422 14.3438 11.3227 14.3438 10.8047C14.3438 10.2867 13.9242 9.86719 13.4297 9.86719ZM6.86719 9.86719C6.32578 9.86719 5.90625 10.2867 5.90625 10.8047C5.90625 11.3227 6.32578 11.7422 6.86719 11.7422C7.36172 11.7422 7.78125 11.3227 7.78125 10.8047C7.78125 10.2867 7.36172 9.86719 6.86719 9.86719Z" fill="black"/>
<path d="M20.9533 8.08601C19.826 6.53913 18.251 5.50554 16.5236 5.03913V5.04148C16.1228 4.59617 15.6705 4.18601 15.1642 3.82038C11.3275 1.03132 5.94158 1.8821 3.1408 5.71882C0.883769 8.83601 0.979863 13.029 3.28143 16.0079L3.30018 19.1157C3.30018 19.1907 3.31189 19.2657 3.33533 19.336C3.45955 19.7321 3.88143 19.9501 4.27518 19.8259L7.24236 18.8907C8.02752 19.1696 8.83846 19.329 9.64471 19.3735L9.63299 19.3829C11.7213 20.904 14.4588 21.361 16.9689 20.5313L19.9478 21.5016C20.0228 21.5251 20.1002 21.5391 20.1799 21.5391C20.5947 21.5391 20.9299 21.204 20.9299 20.7891V17.6485C22.9947 14.8454 23.0486 10.9712 20.9533 8.08601ZM7.57049 17.2266L7.28924 17.1094L4.96893 17.836L4.94549 15.3985L4.75799 15.1876C2.77518 12.7688 2.64393 9.28367 4.50018 6.72663C6.75955 3.6282 11.0908 2.94382 14.1799 5.17976C17.2783 7.4321 17.965 11.7563 15.7267 14.836C13.8494 17.4118 10.4885 18.3634 7.57049 17.2266ZM19.4064 16.8282L19.2189 17.0626L19.2424 19.5001L16.9455 18.7266L16.6642 18.8438C15.3517 19.3313 13.9525 19.3712 12.6564 19.0079L12.6517 19.0055C14.3838 18.4735 15.9541 17.3954 17.0861 15.8438C18.8767 13.3759 19.1674 10.2751 18.1267 7.63132L18.1408 7.6407C18.6799 8.02742 19.1744 8.51023 19.5939 9.09382C21.2955 11.4282 21.1994 14.6063 19.4064 16.8282Z" fill="black"/>
<path d="M10.1484 9.86719C9.60703 9.86719 9.1875 10.2867 9.1875 10.8047C9.1875 11.3227 9.60703 11.7422 10.1484 11.7422C10.643 11.7422 11.0625 11.3227 11.0625 10.8047C11.0625 10.2867 10.643 9.86719 10.1484 9.86719Z" fill="black"/>
</svg>
