<svg width="29" height="26" viewBox="0 0 29 26" fill="none" xmlns="http://www.w3.org/2000/svg">
<path d="M17.4387 0.101048C17.2706 0.0191043 17.0828 -0.0140272 16.8968 0.00541769C16.7107 0.0248626 16.5338 0.0961045 16.3862 0.211048L7.65625 6.9998H2C1.46957 6.9998 0.960859 7.21051 0.585786 7.58558C0.210714 7.96066 0 8.46937 0 8.9998V16.9998C0 17.5302 0.210714 18.0389 0.585786 18.414C0.960859 18.7891 1.46957 18.9998 2 18.9998H7.65625L16.3862 25.7885C16.534 25.9034 16.711 25.9745 16.8971 25.9937C17.0832 26.013 17.271 25.9796 17.4391 25.8975C17.6072 25.8153 17.7489 25.6876 17.8481 25.5289C17.9472 25.3702 17.9999 25.1869 18 24.9998V0.999798C18 0.812458 17.9474 0.628878 17.8482 0.469976C17.749 0.311075 17.6071 0.183243 17.4387 0.101048ZM2 8.9998H7V16.9998H2V8.9998ZM16 22.9548L9 17.511V8.48855L16 3.0448V22.9548ZM22.75 9.6948C23.5543 10.6079 23.9981 11.783 23.9981 12.9998C23.9981 14.2166 23.5543 15.3917 22.75 16.3048C22.5733 16.4989 22.3274 16.6158 22.0653 16.6302C21.8032 16.6446 21.546 16.5554 21.3491 16.3818C21.1522 16.2082 21.0315 15.9642 21.0129 15.7024C20.9944 15.4405 21.0795 15.1819 21.25 14.9823C21.7323 14.4345 21.9984 13.7297 21.9984 12.9998C21.9984 12.2699 21.7323 11.5651 21.25 11.0173C21.0795 10.8177 20.9944 10.5591 21.0129 10.2972C21.0315 10.0354 21.1522 9.79137 21.3491 9.61778C21.546 9.44419 21.8032 9.35497 22.0653 9.36938C22.3274 9.38379 22.5733 9.50067 22.75 9.6948ZM29 12.9998C29.0014 15.4601 28.0947 17.8343 26.4538 19.6673C26.2756 19.8601 26.0288 19.975 25.7667 19.9875C25.5045 19.9999 25.248 19.9087 25.0524 19.7337C24.8568 19.5586 24.7379 19.3137 24.7214 19.0518C24.7048 18.7898 24.7918 18.5319 24.9638 18.3335C26.2755 16.8668 27.0007 14.9681 27.0007 13.0004C27.0007 11.0327 26.2755 9.134 24.9638 7.6673C24.8737 7.56987 24.804 7.45551 24.7586 7.33086C24.7131 7.20621 24.693 7.07378 24.6993 6.94127C24.7055 6.80876 24.7381 6.67882 24.7951 6.55902C24.8521 6.43922 24.9323 6.33196 25.0312 6.24348C25.13 6.155 25.2455 6.08708 25.3708 6.04366C25.4962 6.00024 25.6289 5.98219 25.7613 5.99058C25.8937 5.99896 26.0231 6.0336 26.142 6.09248C26.2609 6.15136 26.3669 6.23331 26.4538 6.33355C28.0952 8.16582 29.002 10.5398 29 12.9998Z" fill="white"/>
</svg>
