<svg width="18" height="26" viewBox="0 0 18 26" fill="none" xmlns="http://www.w3.org/2000/svg">
<path d="M17.4387 0.101048C17.2706 0.0191043 17.0828 -0.0140272 16.8968 0.00541769C16.7107 0.0248626 16.5338 0.0961045 16.3862 0.211048L7.65625 6.9998H2C1.46957 6.9998 0.960859 7.21051 0.585786 7.58558C0.210714 7.96066 0 8.46937 0 8.9998V16.9998C0 17.5302 0.210714 18.0389 0.585786 18.414C0.960859 18.7891 1.46957 18.9998 2 18.9998H7.65625L16.3862 25.7885C16.534 25.9034 16.711 25.9745 16.8971 25.9937C17.0832 26.013 17.271 25.9796 17.4391 25.8975C17.6072 25.8153 17.7489 25.6876 17.8481 25.5289C17.9472 25.3702 17.9999 25.1869 18 24.9998V0.999798C18 0.812458 17.9474 0.628878 17.8482 0.469976C17.749 0.311075 17.6071 0.183243 17.4387 0.101048ZM2 8.9998H7V16.9998H2V8.9998ZM16 22.9548L9 17.511V8.48855L16 3.0448V22.9548Z" fill="#F8F8FC"/>
</svg>
