<svg width="24" height="27" viewBox="0 0 24 27" fill="none" xmlns="http://www.w3.org/2000/svg">
<path opacity="0.7" d="M12 20C11.337 20 10.7011 19.7366 10.2322 19.2678C9.76339 18.7989 9.5 18.163 9.5 17.5C9.5 16.1125 10.6125 15 12 15C12.663 15 13.2989 15.2634 13.7678 15.7322C14.2366 16.2011 14.5 16.837 14.5 17.5C14.5 18.163 14.2366 18.7989 13.7678 19.2678C13.2989 19.7366 12.663 20 12 20ZM19.5 23.75V11.25H4.5V23.75H19.5ZM19.5 8.75C20.163 8.75 20.7989 9.01339 21.2678 9.48223C21.7366 9.95107 22 10.587 22 11.25V23.75C22 24.413 21.7366 25.0489 21.2678 25.5178C20.7989 25.9866 20.163 26.25 19.5 26.25H4.5C3.83696 26.25 3.20107 25.9866 2.73223 25.5178C2.26339 25.0489 2 24.413 2 23.75V11.25C2 9.8625 3.1125 8.75 4.5 8.75H5.75V6.25C5.75 4.5924 6.40848 3.00269 7.58058 1.83058C8.75269 0.65848 10.3424 0 12 0C12.8208 0 13.6335 0.161661 14.3918 0.475753C15.1501 0.789845 15.8391 1.25022 16.4194 1.83058C16.9998 2.41095 17.4602 3.09994 17.7742 3.85823C18.0883 4.61651 18.25 5.42924 18.25 6.25V8.75H19.5ZM12 2.5C11.0054 2.5 10.0516 2.89509 9.34835 3.59835C8.64509 4.30161 8.25 5.25544 8.25 6.25V8.75H15.75V6.25C15.75 5.25544 15.3549 4.30161 14.6517 3.59835C13.9484 2.89509 12.9946 2.5 12 2.5Z" fill="black"/>
</svg>
