<svg width="34" height="34" viewBox="0 0 34 34" fill="none" xmlns="http://www.w3.org/2000/svg">
<path d="M15.3623 5L24.5809 7.736C24.838 7.81225 25.0627 7.96458 25.2222 8.17075C25.3817 8.37691 25.4677 8.62613 25.4676 8.882V11H27.9939C28.3289 11 28.6502 11.1264 28.8871 11.3515C29.124 11.5765 29.2571 11.8817 29.2571 12.2V21.8C29.2571 22.1183 29.124 22.4235 28.8871 22.6485C28.6502 22.8736 28.3289 23 27.9939 23L23.9266 23.0012C23.4377 23.6132 22.844 24.1532 22.1581 24.5972L15.3623 29L8.56655 24.5984C7.54658 23.9377 6.71192 23.0504 6.13515 22.0135C5.55838 20.9766 5.25695 19.8216 5.25708 18.6488V8.882C5.25723 8.62633 5.34334 8.37739 5.50284 8.17146C5.66235 7.96554 5.88692 7.81339 6.14382 7.7372L15.3623 5ZM15.3623 7.5128L7.7834 9.764V18.6488C7.78322 19.3835 7.96055 20.1084 8.30175 20.7677C8.64295 21.427 9.1389 22.0031 9.7514 22.4516L9.99013 22.6148L15.3623 26.0948L20.1396 23H14.0992C13.7642 23 13.4429 22.8736 13.206 22.6485C12.9691 22.4235 12.836 22.1183 12.836 21.8V12.2C12.836 11.8817 12.9691 11.5765 13.206 11.3515C13.4429 11.1264 13.7642 11 14.0992 11H22.9413V9.764L15.3623 7.5128ZM15.3623 17V20.6H26.7308V17H15.3623ZM15.3623 14.6H26.7308V13.4H15.3623V14.6Z" fill="#0EBE7F"/>
</svg>
