<svg width="28" height="24" viewBox="0 0 28 24" fill="none" xmlns="http://www.w3.org/2000/svg">
<path d="M4.91518 2C4.91448 2 4.91369 2 4.91298 2C4.66539 2 4.43251 2.09652 4.25667 2.27192C4.07888 2.44926 3.98096 2.6854 3.98096 2.93678V16.9837C3.98096 17.4988 4.40166 17.9189 4.91889 17.9202C7.09937 17.9254 10.7525 18.3799 13.2727 21.0172V6.31672C13.2727 6.14211 13.2281 5.97807 13.144 5.84233C11.0755 2.51123 7.1006 2.00511 4.91518 2Z" fill="black"/>
<path d="M24.0187 16.9838V2.93678C24.0187 2.6854 23.9208 2.44926 23.743 2.27192C23.5672 2.09652 23.3341 2 23.0868 2C23.086 2 23.0852 2 23.0845 2C20.8992 2.0052 16.9243 2.51132 14.8557 5.84242C14.7716 5.97816 14.7271 6.14219 14.7271 6.3168V21.0172C17.2472 18.3799 20.9004 17.9254 23.0809 17.9202C23.598 17.9189 24.0187 17.4988 24.0187 16.9838Z" fill="black"/>
<path d="M26.1522 5.23975H25.473V16.984C25.473 18.2992 24.4014 19.3716 23.0842 19.3749C21.2347 19.3793 18.1852 19.7409 16.0254 21.7851C19.7607 20.8705 23.6984 21.465 25.9425 21.9764C26.2227 22.0402 26.5123 21.9743 26.7368 21.7954C26.9605 21.6169 27.0888 21.3501 27.0888 21.0637V6.17635C27.0889 5.65992 26.6687 5.23975 26.1522 5.23975Z" fill="black"/>
<path d="M2.52648 16.984V5.23975H1.84725C1.33091 5.23975 0.910645 5.65992 0.910645 6.17635V21.0634C0.910645 21.3499 1.03898 21.6166 1.26269 21.7951C1.48701 21.974 1.7763 22.0402 2.05694 21.9762C4.30107 21.4647 8.23886 20.8702 11.974 21.7848C9.81432 19.7408 6.76475 19.3792 4.91525 19.3748C3.59813 19.3716 2.52648 18.2992 2.52648 16.984Z" fill="black"/>
</svg>
