<svg width="24" height="24" viewBox="0 0 24 24" fill="none" xmlns="http://www.w3.org/2000/svg">
<path d="M6.74599 19.5636L6.61326 20.1387L7.11871 19.8339L11.5825 17.1414L16.0467 19.8696L16.5534 20.1792L16.4208 19.6004L15.2512 14.497L19.1844 11.0953L19.6305 10.7095L19.043 10.6572L13.8692 10.1966L11.8133 5.37589L11.5842 4.83866L11.3536 5.37527L9.29795 10.1601L4.12366 10.6208L3.54038 10.6727L3.98133 11.058L7.91544 14.496L6.74599 19.5636ZM2.95483 25.1891L5.19149 15.5199L5.22541 15.3732L5.11168 15.2746L-2.38999 8.7709L7.52162 7.91052L7.67165 7.8975L7.73028 7.75878L11.5833 -1.35782L15.4364 7.75878L15.495 7.8975L15.645 7.91052L25.5567 8.77091L18.055 15.2746L17.9413 15.3732L17.9752 15.5199L20.2118 25.1891L11.7125 20.062L11.5833 19.9841L11.4542 20.062L2.95483 25.1891Z" fill="black" stroke="black" stroke-width="0.5"/>
</svg>
